<svg enable-background="new 0 0 256 256" viewBox="0 0 256 256" xmlns="http://www.w3.org/2000/svg"><circle cx="128" cy="128" fill="#382b73" r="119.4"/><path d="m74.876 164.14c.494.559 1.183.844 1.874.844.588 0 1.18-.207 1.655-.627l95.524-84.442v8.111c0 1.381 1.119 2.5 2.5 2.5s2.5-1.119 2.5-2.5v-14.659c0-1.381-1.119-2.5-2.5-2.5h-14.659c-1.381 0-2.5 1.119-2.5 2.5s1.119 2.5 2.5 2.5h9.188l-95.866 84.744c-1.033.914-1.13 2.494-.216 3.529z" fill="#291b4a"/><path d="m52.368 70.867c-1.381 0-2.5 1.119-2.5 2.5v117.266c0 1.381 1.119 2.5 2.5 2.5h151.264c1.381 0 2.5-1.119 2.5-2.5s-1.119-2.5-2.5-2.5h-14.584v-86.993c0-1.381-1.119-2.5-2.5-2.5h-20.237c-1.381 0-2.5 1.119-2.5 2.5v86.993h-8.157v-59.167c0-1.381-1.119-2.5-2.5-2.5h-20.237c-1.381 0-2.5 1.119-2.5 2.5v59.167h-8.157v-30.702c0-1.381-1.119-2.5-2.5-2.5h-20.238c-1.381 0-2.5 1.119-2.5 2.5v30.702h-8.158v-12.35c0-1.381-1.119-2.5-2.5-2.5h-20.236c-1.381 0-2.5 1.119-2.5 2.5v12.35h-8.76v-114.766c0-1.381-1.119-2.5-2.5-2.5zm116.443 32.773h15.237v84.493h-15.237zm-33.395 27.825h15.237v56.667h-15.237zm-33.394 28.466h15.236v28.202h-15.236zm-33.394 18.352h15.236v9.85h-15.236z" fill="#291b4a"/><path d="m119.759 189.133c1.381 0 2.5-1.119 2.5-2.5v-33.202c0-1.381-1.119-2.5-2.5-2.5h-20.237c-1.381 0-2.5 1.119-2.5 2.5v33.202c0 1.381 1.119 2.5 2.5 2.5zm-17.737-33.202h15.236v28.202h-15.236z" fill="#ed9abc"/><path d="m153.153 189.133c1.381 0 2.5-1.119 2.5-2.5v-61.667c0-1.381-1.119-2.5-2.5-2.5h-20.237c-1.381 0-2.5 1.119-2.5 2.5v61.667c0 1.381 1.119 2.5 2.5 2.5zm-17.737-61.668h15.237v56.667h-15.237z" fill="#ed9abc"/><path d="m86.364 189.133c1.381 0 2.5-1.119 2.5-2.5v-14.85c0-1.381-1.119-2.5-2.5-2.5h-20.236c-1.381 0-2.5 1.119-2.5 2.5v14.85c0 1.381 1.119 2.5 2.5 2.5zm-17.736-14.85h15.236v9.85h-15.236z" fill="#ed9abc"/><path d="m186.548 189.133c1.381 0 2.5-1.119 2.5-2.5v-89.493c0-1.381-1.119-2.5-2.5-2.5h-20.237c-1.381 0-2.5 1.119-2.5 2.5v89.493c0 1.381 1.119 2.5 2.5 2.5zm-17.737-89.493h15.237v84.493h-15.237z" fill="#ed9abc"/><g fill="#e54890"><path d="m102.022 185.633h15.236c.828 0 1.5-.672 1.5-1.5v-28.202c0-.828-.672-1.5-1.5-1.5h-15.236c-.828 0-1.5.672-1.5 1.5v28.202c0 .828.672 1.5 1.5 1.5zm0-29.702h15.236v28.202h-15.236z"/><path d="m119.759 189.133c1.381 0 2.5-1.119 2.5-2.5v-33.202c0-1.381-1.119-2.5-2.5-2.5h-20.237c-1.381 0-2.5 1.119-2.5 2.5v33.202c0 1.381 1.119 2.5 2.5 2.5zm-21.237-2.5v-33.202c0-.551.449-1 1-1h20.236c.551 0 1 .449 1 1v33.202c0 .551-.449 1-1 1h-20.236c-.551 0-1-.449-1-1z"/><path d="m153.153 189.133c1.381 0 2.5-1.119 2.5-2.5v-61.667c0-1.381-1.119-2.5-2.5-2.5h-20.237c-1.381 0-2.5 1.119-2.5 2.5v61.667c0 1.381 1.119 2.5 2.5 2.5zm-21.237-2.5v-61.667c0-.551.449-1 1-1h20.237c.551 0 1 .449 1 1v61.667c0 .551-.449 1-1 1h-20.237c-.551 0-1-.449-1-1z"/><path d="m135.416 185.633h15.237c.828 0 1.5-.672 1.5-1.5v-56.667c0-.828-.672-1.5-1.5-1.5h-15.237c-.828 0-1.5.672-1.5 1.5v56.667c0 .828.672 1.5 1.5 1.5zm0-58.168h15.237v56.667h-15.237z"/><path d="m86.364 189.133c1.381 0 2.5-1.119 2.5-2.5v-14.85c0-1.381-1.119-2.5-2.5-2.5h-20.236c-1.381 0-2.5 1.119-2.5 2.5v14.85c0 1.381 1.119 2.5 2.5 2.5zm-21.236-2.5v-14.85c0-.551.449-1 1-1h20.236c.551 0 1 .449 1 1v14.85c0 .551-.449 1-1 1h-20.236c-.551 0-1-.449-1-1z"/><path d="m68.628 185.633h15.236c.828 0 1.5-.672 1.5-1.5v-9.85c0-.828-.672-1.5-1.5-1.5h-15.236c-.828 0-1.5.672-1.5 1.5v9.85c0 .828.672 1.5 1.5 1.5zm0-11.35h15.236v9.85h-15.236z"/><path d="m186.548 189.133c1.381 0 2.5-1.119 2.5-2.5v-89.493c0-1.381-1.119-2.5-2.5-2.5h-20.237c-1.381 0-2.5 1.119-2.5 2.5v89.493c0 1.381 1.119 2.5 2.5 2.5zm-21.237-2.5v-89.493c0-.551.449-1 1-1h20.237c.551 0 1 .449 1 1v89.493c0 .551-.449 1-1 1h-20.237c-.552 0-1-.449-1-1z"/><path d="m168.811 185.633h15.237c.828 0 1.5-.672 1.5-1.5v-84.493c0-.828-.672-1.5-1.5-1.5h-15.237c-.828 0-1.5.672-1.5 1.5v84.493c0 .828.671 1.5 1.5 1.5zm0-85.993h15.237v84.493h-15.237z"/></g><path d="m176.43 86.526c1.381 0 2.5-1.119 2.5-2.5v-14.659c0-1.381-1.119-2.5-2.5-2.5h-14.659c-1.381 0-2.5 1.119-2.5 2.5s1.119 2.5 2.5 2.5h12.159v12.159c0 1.381 1.119 2.5 2.5 2.5z" fill="#d3d3d3"/><path d="m78.405 160.357 98.854-87.385c1.034-.915 1.131-2.494.217-3.529-.914-1.034-2.495-1.132-3.529-.217l-98.854 87.385c-1.034.915-1.131 2.494-.217 3.529.494.559 1.183.844 1.874.844.588 0 1.18-.207 1.655-.627z" fill="#d3d3d3"/><path d="m74.876 160.14c.494.559 1.183.844 1.874.844.588 0 1.18-.207 1.655-.627l95.524-84.442v8.111c0 1.381 1.119 2.5 2.5 2.5s2.5-1.119 2.5-2.5v-14.659c0-1.381-1.119-2.5-2.5-2.5h-14.659c-1.381 0-2.5 1.119-2.5 2.5s1.119 2.5 2.5 2.5h9.188l-95.866 84.744c-1.033.914-1.13 2.494-.216 3.529zm1.21-2.405 95.866-84.744c.467-.413.63-1.072.409-1.655s-.779-.969-1.403-.969h-9.188c-.551 0-1-.449-1-1s.449-1 1-1h14.659c.551 0 1 .449 1 1v14.659c0 .551-.449 1-1 1s-1-.449-1-1v-8.111c0-.59-.346-1.125-.884-1.368-.198-.089-.407-.133-.616-.133-.359 0-.714.129-.994.376l-95.524 84.442c-.183.162-.418.251-.662.251-.169 0-.49-.044-.75-.337-.364-.413-.325-1.046.087-1.411z" fill="#ebe7f2"/><path d="m52.368 66.867c-1.381 0-2.5 1.119-2.5 2.5v117.266c0 1.381 1.119 2.5 2.5 2.5h151.264c1.381 0 2.5-1.119 2.5-2.5s-1.119-2.5-2.5-2.5h-148.764v-114.766c0-1.381-1.119-2.5-2.5-2.5z" fill="#f9b087"/><path d="m52.368 66.867c-1.381 0-2.5 1.119-2.5 2.5v117.266c0 1.381 1.119 2.5 2.5 2.5h151.264c1.381 0 2.5-1.119 2.5-2.5s-1.119-2.5-2.5-2.5h-148.764v-114.766c0-1.381-1.119-2.5-2.5-2.5zm151.264 118.766c.551 0 1 .449 1 1s-.449 1-1 1h-151.264c-.551 0-1-.449-1-1v-117.266c0-.551.449-1 1-1s1 .449 1 1v114.766c0 .828.672 1.5 1.5 1.5z" fill="#ff8639"/></svg>